<svg width="62" height="46" viewBox="0 0 62 46" fill="none" xmlns="http://www.w3.org/2000/svg">
<path d="M0.272 0.199999H3.824V17H0.272V0.199999ZM16.8538 0.199999C20.1418 0.199999 22.5418 2.456 22.5418 5.576C22.5418 8.72 20.1418 11.024 16.8538 11.024H13.9978V17H10.4457V0.199999H16.8538ZM16.8538 7.616C18.0778 7.616 18.9658 6.752 18.9658 5.576C18.9658 4.448 18.0778 3.608 16.8538 3.608H13.9978V7.616H16.8538ZM40.8607 0.199999V3.608H35.9407V17H32.3887V3.608H27.4927V0.199999H40.8607ZM45.6273 0.199999H49.4433L53.4033 11.192L57.3633 0.199999H61.1313L54.8193 17H51.9633L45.6273 0.199999ZM6.032 29.2C10.88 29.2 14.552 32.752 14.552 37.528C14.552 42.4 10.88 46 6.032 46H0.272V29.2H6.032ZM6.272 42.592C8.936 42.592 10.88 40.432 10.88 37.528C10.88 34.672 8.96 32.608 6.272 32.608H3.824V42.592H6.272ZM26.4577 46L25.4017 43.192H18.9217L17.8417 46H14.0737L20.7457 29.2H23.6257L30.3217 46H26.4577ZM20.0977 40.144H24.2257L22.1857 34.768L20.0977 40.144ZM45.2366 46H40.9166L37.1246 39.592H35.3006V46H31.7486V29.2H38.2286C41.0606 29.2 43.5326 31.504 43.5326 34.384C43.5326 36.544 42.5006 38.224 40.8446 39.04L45.2366 46ZM35.3006 32.632V36.52H37.8686C39.0206 36.52 39.9326 35.68 39.9326 34.552C39.9326 33.472 39.0206 32.632 37.8686 32.632H35.3006ZM61.1771 46H56.5211L50.1131 37.984V46H46.5611V29.2H50.1131V36.304L56.0891 29.2H60.5771L53.8331 37.12L61.1771 46Z" fill="white"/>
</svg>
